<?xml version="1.0" encoding="UTF-8"?>
<!DOCTYPE svg PUBLIC "-//W3C//DTD SVG 1.1//EN" "http://www.w3.org/Graphics/SVG/1.1/DTD/svg11.dtd">
<svg version="1.1" xmlns="http://www.w3.org/2000/svg" xmlns:xlink="http://www.w3.org/1999/xlink" x="0px" y="0px" width="128" height="128" viewBox="0, 0, 128, 128">
  <g id="Background">
    <rect x="0" y="0" width="128" height="128" fill="#000000" fill-opacity="0"/>
  </g>
  <g id="Background">
    <path d="M18.093,6 L109.907,6 C116.561,6 122,11.439 122,18.093 L122,109.907 C122,116.561 116.561,122 109.907,122 L18.093,122 C11.439,122 6,116.561 6,109.907 L6,18.093 C6,11.439 11.439,6 18.093,6" fill="#727272"/>
    <path d="M72.718,35.219 L72.718,23.094 C72.297,23.387 71.841,23.696 71.353,24.03 C70.863,24.363 70.48,24.629 70.206,24.826 L70.206,20.432 L73.375,18.235 L77.454,18.235 L77.454,35.219 z M93.598,30.073 C93.598,30.885 93.448,31.617 93.147,32.264 C92.845,32.917 92.43,33.469 91.9,33.927 C91.374,34.383 90.744,34.731 90.023,34.977 C89.296,35.219 88.507,35.343 87.643,35.343 C86.797,35.343 86.013,35.219 85.286,34.977 C84.564,34.731 83.944,34.383 83.424,33.927 C82.903,33.469 82.491,32.917 82.189,32.264 C81.888,31.617 81.738,30.885 81.738,30.073 L81.738,23.432 C81.738,22.606 81.888,21.866 82.189,21.212 C82.491,20.564 82.906,20.007 83.432,19.541 C83.962,19.081 84.588,18.723 85.313,18.481 C86.035,18.235 86.812,18.116 87.643,18.116 C88.487,18.116 89.278,18.235 90.008,18.481 C90.744,18.723 91.374,19.081 91.9,19.541 C92.43,20.007 92.845,20.564 93.147,21.212 C93.448,21.866 93.598,22.606 93.598,23.432 z M88.813,23.555 C88.813,22.971 88.706,22.556 88.497,22.313 C88.287,22.066 87.999,21.944 87.643,21.944 C87.287,21.944 87.003,22.066 86.802,22.313 C86.597,22.556 86.496,22.971 86.496,23.555 L86.496,29.972 C86.496,30.557 86.597,30.967 86.802,31.191 C87.003,31.42 87.287,31.535 87.643,31.535 C87.999,31.535 88.287,31.406 88.497,31.146 C88.706,30.885 88.813,30.492 88.813,29.972 z M99.883,35.219 L99.883,23.094 C99.462,23.387 99.005,23.696 98.516,24.03 C98.028,24.363 97.645,24.629 97.371,24.826 L97.371,20.432 L100.54,18.235 L104.618,18.235 L104.618,35.219 z" fill="#EBECEC"/>
    <path d="M48.541,83.204 L53.291,72.613 L58.944,60.415 L71.334,60.415 L71.334,105.098 L59.009,105.098 L59.009,86.931 L58.748,86.931 L55.606,94.12 L53.487,99.385 L43.536,99.385 L41.353,94.055 L38.271,86.734 L38.077,86.734 L38.077,105.098 L25.683,105.098 L25.683,60.415 L37.691,60.415 L42.891,71.714 L48.158,83.204 z M93.781,74.796 L93.781,57.717 L106.171,57.717 L106.171,105.098 L94.228,105.098 L94.228,102.27 L93.909,102.27 C93.311,103.042 92.634,103.654 91.885,104.102 C91.136,104.555 90.388,104.893 89.639,105.13 C88.89,105.367 88.181,105.514 87.519,105.578 C86.857,105.641 86.332,105.678 85.948,105.678 C83.377,105.678 81.323,105.235 79.782,104.358 C78.244,103.482 77.066,102.295 76.252,100.796 C75.44,99.298 74.906,97.553 74.645,95.562 C74.39,93.575 74.261,91.466 74.261,89.241 C74.261,87.187 74.445,85.164 74.811,83.172 C75.17,81.181 75.824,79.396 76.765,77.81 C77.706,76.23 78.961,74.956 80.524,73.992 C82.085,73.029 84.063,72.55 86.46,72.55 C86.802,72.55 87.264,72.568 87.84,72.613 C88.42,72.655 89.04,72.75 89.702,72.901 C90.364,73.051 91.041,73.285 91.726,73.609 C92.41,73.929 93.032,74.368 93.585,74.925 z M90.247,95.658 C91.576,95.658 92.515,95.201 93.072,94.279 C93.63,93.361 93.909,91.681 93.909,89.241 C93.909,86.844 93.63,85.164 93.072,84.2 C92.515,83.237 91.616,82.757 90.379,82.757 C89.05,82.757 88.109,83.346 87.551,84.519 C86.994,85.697 86.715,87.314 86.715,89.37 C86.715,91.297 86.953,92.826 87.424,93.959 C87.894,95.091 88.835,95.658 90.247,95.658" fill="#82D1F5"/>
  </g>
  <defs/>
</svg>
