<?xml version="1.0" encoding="UTF-8" standalone="no"?>
<!-- Created with Inkscape (http://www.inkscape.org/) -->
<svg xmlns:dc="http://purl.org/dc/elements/1.1/" xmlns:cc="http://web.resource.org/cc/" xmlns:rdf="http://www.w3.org/1999/02/22-rdf-syntax-ns#" xmlns:svg="http://www.w3.org/2000/svg" xmlns="http://www.w3.org/2000/svg" xmlns:sodipodi="http://sodipodi.sourceforge.net/DTD/sodipodi-0.dtd" xmlns:inkscape="http://www.inkscape.org/namespaces/inkscape" width="220pt" height="180pt" id="svg2" sodipodi:version="0.32" inkscape:version="0.45.1" sodipodi:docbase="C:\Documents and Settings\Sharayanan\Bureau" sodipodi:docname="Klechkovski_rule.svg" version="1.0" inkscape:output_extension="org.inkscape.output.svg.inkscape">
  <defs id="defs4">
    <marker inkscape:stockid="Arrow2Lstart" orient="auto" refY="0" refX="0" id="Arrow2Lstart" style="overflow: visible;">
      <path id="path2363" style="font-size: 12px; fill-rule: evenodd; stroke-width: 0.625; stroke-linejoin: round;" d="M 8.7185878,4.0337352 L -2.2072895,0.016013256 L 8.7185884,-4.0017078 C 6.97309,-1.6296469 6.9831476,1.6157441 8.7185878,4.0337352 z " transform="matrix(1.1, 0, 0, 1.1, -5.5, 0)"/>
    </marker>
    <marker inkscape:stockid="Arrow1Lend" orient="auto" refY="0" refX="0" id="Arrow1Lend" style="overflow: visible;">
      <path id="path2378" d="M 0,0 L 5,-5 L -12.5,0 L 5,5 L 0,0 z " style="fill-rule: evenodd; stroke: rgb(0, 0, 0); stroke-width: 1pt; marker-start: none;" transform="scale(-0.8)"/>
    </marker>
  </defs>
  <sodipodi:namedview id="base" pagecolor="#ffffff" bordercolor="#666666" borderopacity="1.0" inkscape:pageopacity="0.0" inkscape:pageshadow="2" inkscape:zoom="1.4" inkscape:cx="55.446951" inkscape:cy="120.67432" inkscape:document-units="px" inkscape:current-layer="layer1" inkscape:window-width="1280" inkscape:window-height="747" inkscape:window-x="-4" inkscape:window-y="-4"/>
  <metadata id="metadata7">
    <rdf:RDF>
      <cc:Work rdf:about="">
        <dc:format>image/svg+xml</dc:format>
        <dc:type rdf:resource="http://purl.org/dc/dcmitype/StillImage"/>
        <dc:title>Klechkovsky's rule</dc:title>
      </cc:Work>
    </rdf:RDF>
  </metadata>
  <g inkscape:label="Layer 1" inkscape:groupmode="layer" id="layer1" transform="translate(-15,-30)">
    <path transform="matrix(1.03425, 0, 0, 0.966885, -12.8571, 30.7143)" style="font-size: 29.5286px; font-style: normal; font-weight: normal; fill: #006CA9; fill-opacity: 1; stroke: none; stroke-width: 1px; stroke-linecap: butt; stroke-linejoin: miter; stroke-opacity: 1; font-family: Bitstream Vera Sans;" d="M 50.666712,28.723306 L 55.424738,28.723306 L 55.424738,12.30091 L 50.248583,13.339024 L 50.248583,10.686065 L 55.395901,9.6479502 L 58.308389,9.6479502 L 58.308389,28.723306 L 63.066414,28.723306 L 63.066414,31.17441 L 50.666712,31.17441 L 50.666712,28.723306 z M 78.883244,15.501763 L 78.883244,18.01054 C 78.133482,17.626067 77.354897,17.337702 76.547486,17.145445 C 75.740053,16.953215 74.903795,16.857094 74.038709,16.857079 C 72.721834,16.857094 71.734185,17.058949 71.075757,17.462646 C 70.417318,17.866371 70.088102,18.471937 70.088106,19.279347 C 70.088102,19.894537 70.3236,20.377548 70.794601,20.728382 C 71.265592,21.079236 72.21239,21.413259 73.634998,21.730451 L 74.543348,21.932306 C 76.427323,22.336026 77.765817,22.905547 78.558833,23.64087 C 79.351824,24.376208 79.748325,25.402306 79.748339,26.719168 C 79.748325,28.21867 79.154774,29.405772 77.967684,30.280478 C 76.78057,31.155186 75.148905,31.592539 73.072686,31.592539 C 72.207584,31.592539 71.306443,31.508433 70.369262,31.34022 C 69.432072,31.172007 68.444422,30.919688 67.40631,30.583261 L 67.40631,27.843792 C 68.386749,28.35324 69.352771,28.735324 70.30438,28.990044 C 71.25598,29.244768 72.197972,29.372129 73.130359,29.372128 C 74.379932,29.372129 75.341149,29.158259 76.01401,28.730515 C 76.686851,28.302776 77.023277,27.699613 77.023288,26.921024 C 77.023277,26.200116 76.78057,25.647416 76.295166,25.262924 C 75.809742,24.878443 74.745195,24.508375 73.101522,24.152718 L 72.178754,23.936444 C 70.535067,23.590414 69.347965,23.059342 68.617444,22.343227 C 67.886917,21.627129 67.521654,20.644286 67.521656,19.394693 C 67.521654,17.875983 68.059936,16.703299 69.136501,15.876638 C 70.21306,15.050007 71.741394,14.636684 73.721507,14.636668 C 74.70194,14.636684 75.624708,14.708775 76.489813,14.852941 C 77.354897,14.99714 78.152706,15.213414 78.883244,15.501763 L 78.883244,15.501763 z M 52.67085,65.634047 L 62.835722,65.634047 L 62.835722,68.085151 L 49.167213,68.085151 L 49.167213,65.634047 C 50.27261,64.490202 51.779316,62.954659 53.687337,61.027414 C 55.595345,59.100182 56.794462,57.85781 57.284693,57.300294 C 58.217062,56.252579 58.868286,55.365857 59.238367,54.640125 C 59.608423,53.91442 59.793457,53.200717 59.79347,52.499014 C 59.793457,51.355182 59.392149,50.422802 58.589545,49.701872 C 57.786918,48.980978 56.741595,48.620522 55.453574,48.620502 C 54.54041,48.620522 53.576791,48.779123 52.562713,49.096305 C 51.548625,49.413525 50.464853,49.894133 49.311396,50.538131 L 49.311396,47.596806 C 50.484078,47.125831 51.579864,46.770181 52.598759,46.529855 C 53.617643,46.289572 54.550022,46.16942 55.395901,46.169399 C 57.625914,46.16942 59.404164,46.726926 60.730657,47.841916 C 62.057121,48.956948 62.720361,50.446833 62.720376,52.311577 C 62.720361,53.195911 62.554551,54.034573 62.222946,54.827563 C 61.891311,55.620579 61.288148,56.555362 60.413455,57.631914 C 60.173137,57.910677 59.40897,58.715696 58.120952,60.046972 C 56.832911,61.378265 55.016212,63.240621 52.67085,65.634047 L 52.67085,65.634047 z M 78.883244,52.412504 L 78.883244,54.921281 C 78.133482,54.536808 77.354897,54.248443 76.547486,54.056186 C 75.740053,53.863957 74.903795,53.767835 74.038709,53.767821 C 72.721834,53.767835 71.734185,53.96969 71.075757,54.373388 C 70.417318,54.777112 70.088102,55.382678 70.088106,56.190088 C 70.088102,56.805278 70.3236,57.28829 70.794601,57.639123 C 71.265592,57.989977 72.21239,58.324 73.634998,58.641192 L 74.543348,58.843048 C 76.427323,59.246768 77.765817,59.816288 78.558833,60.551611 C 79.351824,61.286949 79.748325,62.313048 79.748339,63.629909 C 79.748325,65.129411 79.154774,66.316513 77.967684,67.191219 C 76.78057,68.065927 75.148905,68.50328 73.072686,68.503281 C 72.207584,68.50328 71.306443,68.419174 70.369262,68.250961 C 69.432072,68.082748 68.444422,67.830429 67.40631,67.494003 L 67.40631,64.754534 C 68.386749,65.263981 69.352771,65.646065 70.30438,65.900785 C 71.25598,66.15551 72.197972,66.282871 73.130359,66.282869 C 74.379932,66.282871 75.341149,66.069 76.01401,65.641256 C 76.686851,65.213518 77.023277,64.610354 77.023288,63.831765 C 77.023277,63.110857 76.78057,62.558158 76.295166,62.173665 C 75.809742,61.789185 74.745195,61.419116 73.101522,61.063459 L 72.178754,60.847186 C 70.535067,60.501155 69.347965,59.970083 68.617444,59.253968 C 67.886917,58.537871 67.521654,57.555027 67.521656,56.305434 C 67.521654,54.786724 68.059936,53.61404 69.136501,52.787379 C 70.21306,51.960748 71.741394,51.547425 73.721507,51.547409 C 74.70194,51.547425 75.624708,51.619517 76.489813,51.763683 C 77.354897,51.907882 78.152706,52.124155 78.883244,52.412504 L 78.883244,52.412504 z M 96.271665,65.634047 L 106.43654,65.634047 L 106.43654,68.085151 L 92.768028,68.085151 L 92.768028,65.634047 C 93.873425,64.490202 95.380131,62.954659 97.288152,61.027414 C 99.19616,59.100182 100.39528,57.85781 100.88551,57.300294 C 101.81788,56.252579 102.4691,55.365857 102.83918,54.640125 C 103.20924,53.91442 103.39427,53.200717 103.39428,52.499014 C 103.39427,51.355182 102.99296,50.422802 102.19036,49.701872 C 101.38773,48.980978 100.34241,48.620522 99.054389,48.620502 C 98.141225,48.620522 97.177606,48.779123 96.163528,49.096305 C 95.149439,49.413525 94.065668,49.894133 92.912211,50.538131 L 92.912211,47.596806 C 94.084892,47.125831 95.180679,46.770181 96.199574,46.529855 C 97.218457,46.289572 98.150837,46.16942 98.996716,46.169399 C 101.22673,46.16942 103.00498,46.726926 104.33147,47.841916 C 105.65794,48.956948 106.32118,50.446833 106.32119,52.311577 C 106.32118,53.195911 106.15537,54.034573 105.82376,54.827563 C 105.49213,55.620579 104.88896,56.555362 104.01427,57.631914 C 103.77395,57.910677 103.00979,58.715696 101.72177,60.046972 C 100.43373,61.378265 98.617027,63.240621 96.271665,65.634047 L 96.271665,65.634047 z M 114.75587,65.662884 L 114.75587,74.227329 L 112.08849,74.227329 L 112.08849,51.936702 L 114.75587,51.936702 L 114.75587,54.387806 C 115.31337,53.426603 116.01746,52.7129 116.86815,52.246694 C 117.71881,51.78052 118.7353,51.547425 119.91761,51.547409 C 121.87848,51.547425 123.47169,52.326011 124.69726,53.883167 C 125.92279,55.440351 126.53557,57.487742 126.53559,60.025345 C 126.53557,62.562964 125.92279,64.610354 124.69726,66.167523 C 123.47169,67.724695 121.87848,68.50328 119.91761,68.503281 C 118.7353,68.50328 117.71881,68.270185 116.86815,67.803995 C 116.01746,67.337806 115.31337,66.624102 114.75587,65.662884 L 114.75587,65.662884 z M 123.7817,60.025345 C 123.78169,58.074084 123.38038,56.543347 122.57778,55.43313 C 121.77515,54.322937 120.67215,53.767835 119.26879,53.767821 C 117.8654,53.767835 116.7624,54.322937 115.95979,55.43313 C 115.15717,56.543347 114.75586,58.074084 114.75587,60.025345 C 114.75586,61.976622 115.15717,63.507359 115.95979,64.61756 C 116.7624,65.727768 117.8654,66.282871 119.26879,66.282869 C 120.67215,66.282871 121.77515,65.727768 122.57778,64.61756 C 123.38038,63.507359 123.78169,61.976622 123.7817,60.025345 L 123.7817,60.025345 z M 58.986047,93.389195 C 60.379799,93.687183 61.468376,94.307168 62.251783,95.24915 C 63.035159,96.191152 63.426854,97.354223 63.426871,98.738368 C 63.426854,100.86266 62.69633,102.50634 61.235296,103.66941 C 59.774233,104.83249 57.698006,105.41402 55.006608,105.41402 C 54.103057,105.41402 53.17308,105.32511 52.216675,105.14728 C 51.26026,104.96946 50.27261,104.70272 49.253723,104.34707 L 49.253723,101.53551 C 50.061142,102.00651 50.945461,102.36216 51.906682,102.60246 C 52.867894,102.84277 53.872365,102.96292 54.920098,102.96292 C 56.746401,102.96292 58.137762,102.60246 59.094184,101.88155 C 60.050582,101.16064 60.528787,100.11291 60.528801,98.738368 C 60.528787,97.469569 60.084225,96.477113 59.195112,95.760998 C 58.305975,95.044901 57.068409,94.686848 55.482411,94.686838 L 52.973634,94.686838 L 52.973634,92.293407 L 55.597757,92.293407 C 57.02996,92.29342 58.125747,92.007458 58.88512,91.435521 C 59.644468,90.86361 60.024149,90.039368 60.024162,88.962789 C 60.024149,87.857407 59.632453,87.009133 58.849074,86.417967 C 58.065671,85.826837 56.943451,85.531263 55.482411,85.531244 C 54.684593,85.531263 53.82911,85.617773 52.915961,85.790772 C 52.002799,85.963811 50.998328,86.232951 49.902545,86.598195 L 49.902545,84.002908 C 51.00794,83.69534 52.043651,83.464648 53.009679,83.310832 C 53.975696,83.157059 54.886448,83.080162 55.741939,83.08014 C 57.952728,83.080162 59.702141,83.582397 60.990185,84.586848 C 62.278201,85.591339 62.922216,86.949057 62.922232,88.660006 C 62.922216,89.85193 62.580984,90.858804 61.898535,91.680631 C 61.216057,92.502484 60.245229,93.072005 58.986047,93.389195 L 58.986047,93.389195 z M 78.883244,89.323246 L 78.883244,91.832023 C 78.133482,91.447549 77.354897,91.159184 76.547486,90.966927 C 75.740053,90.774698 74.903795,90.678576 74.038709,90.678562 C 72.721834,90.678576 71.734185,90.880432 71.075757,91.284129 C 70.417318,91.687853 70.088102,92.29342 70.088106,93.100829 C 70.088102,93.71602 70.3236,94.199031 70.794601,94.549864 C 71.265592,94.900719 72.21239,95.234741 73.634998,95.551933 L 74.543348,95.753789 C 76.427323,96.157509 77.765817,96.72703 78.558833,97.462353 C 79.351824,98.197691 79.748325,99.223789 79.748339,100.54065 C 79.748325,102.04015 79.154774,103.22725 77.967684,104.10196 C 76.78057,104.97667 75.148905,105.41402 73.072686,105.41402 C 72.207584,105.41402 71.306443,105.32992 70.369262,105.1617 C 69.432072,104.99349 68.444422,104.74117 67.40631,104.40474 L 67.40631,101.66527 C 68.386749,102.17472 69.352771,102.55681 70.30438,102.81153 C 71.25598,103.06625 72.197972,103.19361 73.130359,103.19361 C 74.379932,103.19361 75.341149,102.97974 76.01401,102.552 C 76.686851,102.12426 77.023277,101.5211 77.023288,100.74251 C 77.023277,100.0216 76.78057,99.468899 76.295166,99.084407 C 75.809742,98.699926 74.745195,98.329858 73.101522,97.974201 L 72.178754,97.757927 C 70.535067,97.411896 69.347965,96.880824 68.617444,96.164709 C 67.886917,95.448612 67.521654,94.465768 67.521656,93.216175 C 67.521654,91.697466 68.059936,90.524782 69.136501,89.69812 C 70.21306,88.87149 71.741394,88.458167 73.721507,88.45815 C 74.70194,88.458167 75.624708,88.530258 76.489813,88.674424 C 77.354897,88.818623 78.152706,89.034897 78.883244,89.323246 L 78.883244,89.323246 z M 102.58686,93.389195 C 103.98061,93.687183 105.06919,94.307168 105.8526,95.24915 C 106.63597,96.191152 107.02767,97.354223 107.02769,98.738368 C 107.02767,100.86266 106.29714,102.50634 104.83611,103.66941 C 103.37505,104.83249 101.29882,105.41402 98.607423,105.41402 C 97.703872,105.41402 96.773895,105.32511 95.81749,105.14728 C 94.861074,104.96946 93.873425,104.70272 92.854538,104.34707 L 92.854538,101.53551 C 93.661957,102.00651 94.546276,102.36216 95.507497,102.60246 C 96.468709,102.84277 97.47318,102.96292 98.520913,102.96292 C 100.34722,102.96292 101.73858,102.60246 102.695,101.88155 C 103.6514,101.16064 104.1296,100.11291 104.12962,98.738368 C 104.1296,97.469569 103.68504,96.477113 102.79593,95.760998 C 101.90679,95.044901 100.66922,94.686848 99.083225,94.686838 L 96.574448,94.686838 L 96.574448,92.293407 L 99.198571,92.293407 C 100.63078,92.29342 101.72656,92.007458 102.48593,91.435521 C 103.24528,90.86361 103.62496,90.039368 103.62498,88.962789 C 103.62496,87.857407 103.23327,87.009133 102.44989,86.417967 C 101.66649,85.826837 100.54427,85.531263 99.083225,85.531244 C 98.285407,85.531263 97.429925,85.617773 96.516775,85.790772 C 95.603614,85.963811 94.599143,86.232951 93.503359,86.598195 L 93.503359,84.002908 C 94.608755,83.69534 95.644466,83.464648 96.610494,83.310832 C 97.57651,83.157059 98.487263,83.080162 99.342754,83.08014 C 101.55354,83.080162 103.30296,83.582397 104.591,84.586848 C 105.87902,85.591339 106.52303,86.949057 106.52305,88.660006 C 106.52303,89.85193 106.1818,90.858804 105.49935,91.680631 C 104.81687,92.502484 103.84604,93.072005 102.58686,93.389195 L 102.58686,93.389195 z M 114.75587,102.57363 L 114.75587,111.13807 L 112.08849,111.13807 L 112.08849,88.847443 L 114.75587,88.847443 L 114.75587,91.298547 C 115.31337,90.337345 116.01746,89.623641 116.86815,89.157436 C 117.71881,88.691262 118.7353,88.458167 119.91761,88.45815 C 121.87848,88.458167 123.47169,89.236752 124.69726,90.793908 C 125.92279,92.351093 126.53557,94.398483 126.53559,96.936086 C 126.53557,99.473705 125.92279,101.5211 124.69726,103.07826 C 123.47169,104.63544 121.87848,105.41402 119.91761,105.41402 C 118.7353,105.41402 117.71881,105.18093 116.86815,104.71474 C 116.01746,104.24855 115.31337,103.53484 114.75587,102.57363 L 114.75587,102.57363 z M 123.7817,96.936086 C 123.78169,94.984825 123.38038,93.454088 122.57778,92.343871 C 121.77515,91.233679 120.67215,90.678576 119.26879,90.678562 C 117.8654,90.678576 116.7624,91.233679 115.95979,92.343871 C 115.15717,93.454088 114.75586,94.984825 114.75587,96.936086 C 114.75586,98.887363 115.15717,100.4181 115.95979,101.5283 C 116.7624,102.63851 117.8654,103.19361 119.26879,103.19361 C 120.67215,103.19361 121.77515,102.63851 122.57778,101.5283 C 123.38038,100.4181 123.78169,98.887363 123.7817,96.936086 L 123.7817,96.936086 z M 149.53271,93.389195 C 150.92646,93.687183 152.01504,94.307168 152.79844,95.24915 C 153.58182,96.191152 153.97352,97.354223 153.97353,98.738368 C 153.97352,100.86266 153.24299,102.50634 151.78196,103.66941 C 150.32089,104.83249 148.24467,105.41402 145.55327,105.41402 C 144.64972,105.41402 143.71974,105.32511 142.76334,105.14728 C 141.80692,104.96946 140.81927,104.70272 139.80038,104.34707 L 139.80038,101.53551 C 140.6078,102.00651 141.49212,102.36216 142.45334,102.60246 C 143.41456,102.84277 144.41903,102.96292 145.46676,102.96292 C 147.29306,102.96292 148.68442,102.60246 149.64085,101.88155 C 150.59724,101.16064 151.07545,100.11291 151.07546,98.738368 C 151.07545,97.469569 150.63089,96.477113 149.74177,95.760998 C 148.85264,95.044901 147.61507,94.686848 146.02907,94.686838 L 143.52029,94.686838 L 143.52029,92.293407 L 146.14442,92.293407 C 147.57662,92.29342 148.67241,92.007458 149.43178,91.435521 C 150.19113,90.86361 150.57081,90.039368 150.57082,88.962789 C 150.57081,87.857407 150.17911,87.009133 149.39574,86.417967 C 148.61233,85.826837 147.49011,85.531263 146.02907,85.531244 C 145.23125,85.531263 144.37577,85.617773 143.46262,85.790772 C 142.54946,85.963811 141.54499,86.232951 140.44921,86.598195 L 140.44921,84.002908 C 141.5546,83.69534 142.59031,83.464648 143.55634,83.310832 C 144.52236,83.157059 145.43311,83.080162 146.2886,83.08014 C 148.49939,83.080162 150.2488,83.582397 151.53685,84.586848 C 152.82486,85.591339 153.46888,86.949057 153.46889,88.660006 C 153.46888,89.85193 153.12765,90.858804 152.4452,91.680631 C 151.76272,92.502484 150.79189,93.072005 149.53271,93.389195 L 149.53271,93.389195 z M 169.76152,91.298547 L 169.76152,82.561083 L 172.41448,82.561083 L 172.41448,104.99589 L 169.76152,104.99589 L 169.76152,102.57363 C 169.204,103.53484 168.49991,104.24855 167.64925,104.71474 C 166.79856,105.18093 165.77727,105.41402 164.58537,105.41402 C 162.63409,105.41402 161.04568,104.63544 159.82013,103.07826 C 158.59458,101.5211 157.9818,99.473705 157.98181,96.936086 C 157.9818,94.398483 158.59458,92.351093 159.82013,90.793908 C 161.04568,89.236752 162.63409,88.458167 164.58537,88.45815 C 165.77727,88.458167 166.79856,88.691262 167.64925,89.157436 C 168.49991,89.623641 169.204,90.337345 169.76152,91.298547 L 169.76152,91.298547 z M 160.72128,96.936086 C 160.72127,98.887363 161.12258,100.4181 161.9252,101.5283 C 162.72781,102.63851 163.83081,103.19361 165.23419,103.19361 C 166.63756,103.19361 167.74296,102.63851 168.55039,101.5283 C 169.3578,100.4181 169.76151,98.887363 169.76152,96.936086 C 169.76151,94.984825 169.3578,93.454088 168.55039,92.343871 C 167.74296,91.233679 166.63756,90.678576 165.23419,90.678562 C 163.83081,90.678576 162.72781,91.233679 161.9252,92.343871 C 161.12258,93.454088 160.72127,94.984825 160.72128,96.936086 L 160.72128,96.936086 z M 58.164207,122.91779 L 50.810895,134.40914 L 58.164207,134.40914 L 58.164207,122.91779 z M 57.400039,120.38017 L 61.062277,120.38017 L 61.062277,134.40914 L 64.133366,134.40914 L 64.133366,136.83141 L 61.062277,136.83141 L 61.062277,141.90663 L 58.164207,141.90663 L 58.164207,136.83141 L 48.4463,136.83141 L 48.4463,134.01985 L 57.400039,120.38017 z M 78.883244,126.23399 L 78.883244,128.74276 C 78.133482,128.35829 77.354897,128.06993 76.547486,127.87767 C 75.740053,127.68544 74.903795,127.58932 74.038709,127.5893 C 72.721834,127.58932 71.734185,127.79117 71.075757,128.19487 C 70.417318,128.59859 70.088102,129.20416 70.088106,130.01157 C 70.088102,130.62676 70.3236,131.10977 70.794601,131.46061 C 71.265592,131.81146 72.21239,132.14548 73.634998,132.46267 L 74.543348,132.66453 C 76.427323,133.06825 77.765817,133.63777 78.558833,134.37309 C 79.351824,135.10843 79.748325,136.13453 79.748339,137.45139 C 79.748325,138.95089 79.154774,140.138 77.967684,141.0127 C 76.78057,141.88741 75.148905,142.32476 73.072686,142.32476 C 72.207584,142.32476 71.306443,142.24066 70.369262,142.07244 C 69.432072,141.90423 68.444422,141.65191 67.40631,141.31549 L 67.40631,138.57602 C 68.386749,139.08546 69.352771,139.46755 70.30438,139.72227 C 71.25598,139.97699 72.197972,140.10435 73.130359,140.10435 C 74.379932,140.10435 75.341149,139.89048 76.01401,139.46274 C 76.686851,139.035 77.023277,138.43184 77.023288,137.65325 C 77.023277,136.93234 76.78057,136.37964 76.295166,135.99515 C 75.809742,135.61067 74.745195,135.2406 73.101522,134.88494 L 72.178754,134.66867 C 70.535067,134.32264 69.347965,133.79157 68.617444,133.07545 C 67.886917,132.35935 67.521654,131.37651 67.521656,130.12692 C 67.521654,128.60821 68.059936,127.43552 69.136501,126.60886 C 70.21306,125.78223 71.741394,125.36891 73.721507,125.36889 C 74.70194,125.36891 75.624708,125.441 76.489813,125.58517 C 77.354897,125.72936 78.152706,125.94564 78.883244,126.23399 L 78.883244,126.23399 z M 101.76502,122.91779 L 94.41171,134.40914 L 101.76502,134.40914 L 101.76502,122.91779 z M 101.00085,120.38017 L 104.66309,120.38017 L 104.66309,134.40914 L 107.73418,134.40914 L 107.73418,136.83141 L 104.66309,136.83141 L 104.66309,141.90663 L 101.76502,141.90663 L 101.76502,136.83141 L 92.047115,136.83141 L 92.047115,134.01985 L 101.00085,120.38017 z M 114.75587,139.48437 L 114.75587,148.04881 L 112.08849,148.04881 L 112.08849,125.75818 L 114.75587,125.75818 L 114.75587,128.20929 C 115.31337,127.24809 116.01746,126.53438 116.86815,126.06818 C 117.71881,125.602 118.7353,125.36891 119.91761,125.36889 C 121.87848,125.36891 123.47169,126.14749 124.69726,127.70465 C 125.92279,129.26183 126.53557,131.30922 126.53559,133.84683 C 126.53557,136.38445 125.92279,138.43184 124.69726,139.98901 C 123.47169,141.54618 121.87848,142.32476 119.91761,142.32476 C 118.7353,142.32476 117.71881,142.09167 116.86815,141.62548 C 116.01746,141.15929 115.31337,140.44559 114.75587,139.48437 L 114.75587,139.48437 z M 123.7817,133.84683 C 123.78169,131.89557 123.38038,130.36483 122.57778,129.25461 C 121.77515,128.14442 120.67215,127.58932 119.26879,127.5893 C 117.8654,127.58932 116.7624,128.14442 115.95979,129.25461 C 115.15717,130.36483 114.75586,131.89557 114.75587,133.84683 C 114.75586,135.7981 115.15717,137.32884 115.95979,138.43904 C 116.7624,139.54925 117.8654,140.10435 119.26879,140.10435 C 120.67215,140.10435 121.77515,139.54925 122.57778,138.43904 C 123.38038,137.32884 123.78169,135.7981 123.7817,133.84683 L 123.7817,133.84683 z M 148.71087,122.91779 L 141.35756,134.40914 L 148.71087,134.40914 L 148.71087,122.91779 z M 147.9467,120.38017 L 151.60894,120.38017 L 151.60894,134.40914 L 154.68003,134.40914 L 154.68003,136.83141 L 151.60894,136.83141 L 151.60894,141.90663 L 148.71087,141.90663 L 148.71087,136.83141 L 138.99296,136.83141 L 138.99296,134.01985 L 147.9467,120.38017 z M 169.76152,128.20929 L 169.76152,119.47182 L 172.41448,119.47182 L 172.41448,141.90663 L 169.76152,141.90663 L 169.76152,139.48437 C 169.204,140.44559 168.49991,141.15929 167.64925,141.62548 C 166.79856,142.09167 165.77727,142.32476 164.58537,142.32476 C 162.63409,142.32476 161.04568,141.54618 159.82013,139.98901 C 158.59458,138.43184 157.9818,136.38445 157.98181,133.84683 C 157.9818,131.30922 158.59458,129.26183 159.82013,127.70465 C 161.04568,126.14749 162.63409,125.36891 164.58537,125.36889 C 165.77727,125.36891 166.79856,125.602 167.64925,126.06818 C 168.49991,126.53438 169.204,127.24809 169.76152,128.20929 L 169.76152,128.20929 z M 160.72128,133.84683 C 160.72127,135.7981 161.12258,137.32884 161.9252,138.43904 C 162.72781,139.54925 163.83081,140.10435 165.23419,140.10435 C 166.63756,140.10435 167.74296,139.54925 168.55039,138.43904 C 169.3578,137.32884 169.76151,135.7981 169.76152,133.84683 C 169.76151,131.89557 169.3578,130.36483 168.55039,129.25461 C 167.74296,128.14442 166.63756,127.58932 165.23419,127.5893 C 163.83081,127.58932 162.72781,128.14442 161.9252,129.25461 C 161.12258,130.36483 160.72127,131.89557 160.72128,133.84683 L 160.72128,133.84683 z M 195.65671,122.91779 L 188.3034,134.40914 L 195.65671,134.40914 L 195.65671,122.91779 z M 194.89255,120.38017 L 198.55478,120.38017 L 198.55478,134.40914 L 201.62587,134.40914 L 201.62587,136.83141 L 198.55478,136.83141 L 198.55478,141.90663 L 195.65671,141.90663 L 195.65671,136.83141 L 185.93881,136.83141 L 185.93881,134.01985 L 194.89255,120.38017 z M 214.25627,119.47182 L 214.25627,121.67782 L 211.71865,121.67782 C 210.76704,121.67784 210.1062,121.87008 209.73614,122.25455 C 209.36607,122.63905 209.18103,123.33113 209.18104,124.33078 L 209.18104,125.75818 L 213.54977,125.75818 L 213.54977,127.82 L 209.18104,127.82 L 209.18104,141.90663 L 206.51366,141.90663 L 206.51366,127.82 L 203.97605,127.82 L 203.97605,125.75818 L 206.51366,125.75818 L 206.51366,124.63356 C 206.51366,122.8361 206.93179,121.52645 207.76805,120.70458 C 208.6043,119.88277 209.93078,119.47185 211.74749,119.47182 L 214.25627,119.47182 z M 50.19091,157.29092 L 61.624589,157.29092 L 61.624589,159.74202 L 52.858288,159.74202 L 52.858288,165.0191 C 53.281217,164.87493 53.704152,164.7668 54.127094,164.69469 C 54.550022,164.62261 54.972957,164.58657 55.395901,164.58655 C 57.798933,164.58657 59.702141,165.245 61.105531,166.56186 C 62.508893,167.87873 63.210581,169.66179 63.210597,171.91103 C 63.210581,174.22757 62.489669,176.02744 61.047858,177.31067 C 59.60602,178.59389 57.573047,179.2355 54.948935,179.2355 C 54.045384,179.2355 53.125019,179.15861 52.187839,179.00481 C 51.250647,178.85102 50.282222,178.62033 49.282559,178.31274 L 49.282559,175.38583 C 50.147652,175.85683 51.041583,176.20767 51.964356,176.43836 C 52.887118,176.66906 53.862753,176.7844 54.891262,176.7844 C 56.554158,176.7844 57.871024,176.34705 58.841865,175.47234 C 59.812681,174.59764 60.298096,173.41053 60.298109,171.91103 C 60.298096,170.41154 59.812681,169.22444 58.841865,168.34972 C 57.871024,167.47502 56.554158,167.03767 54.891262,167.03766 C 54.112669,167.03767 53.336487,167.12418 52.562713,167.29719 C 51.788929,167.47022 50.998328,167.73936 50.19091,168.10461 L 50.19091,157.29092 z M 78.883244,163.14473 L 78.883244,165.65351 C 78.133482,165.26903 77.354897,164.98067 76.547486,164.78841 C 75.740053,164.59618 74.903795,164.50006 74.038709,164.50004 C 72.721834,164.50006 71.734185,164.70191 71.075757,165.10561 C 70.417318,165.50934 70.088102,166.1149 70.088106,166.92231 C 70.088102,167.5375 70.3236,168.02051 70.794601,168.37135 C 71.265592,168.7222 72.21239,169.05622 73.634998,169.37342 L 74.543348,169.57527 C 76.427323,169.97899 77.765817,170.54851 78.558833,171.28384 C 79.351824,172.01917 79.748325,173.04527 79.748339,174.36213 C 79.748325,175.86164 79.154774,177.04874 77.967684,177.92344 C 76.78057,178.79815 75.148905,179.2355 73.072686,179.2355 C 72.207584,179.2355 71.306443,179.1514 70.369262,178.98319 C 69.432072,178.81497 68.444422,178.56265 67.40631,178.22623 L 67.40631,175.48676 C 68.386749,175.99621 69.352771,176.37829 70.30438,176.63301 C 71.25598,176.88773 72.197972,177.01509 73.130359,177.01509 C 74.379932,177.01509 75.341149,176.80122 76.01401,176.37348 C 76.686851,175.94574 77.023277,175.34258 77.023288,174.56399 C 77.023277,173.84308 76.78057,173.29038 76.295166,172.90589 C 75.809742,172.52141 74.745195,172.15134 73.101522,171.79568 L 72.178754,171.57941 C 70.535067,171.23338 69.347965,170.70231 68.617444,169.98619 C 67.886917,169.27009 67.521654,168.28725 67.521656,167.03766 C 67.521654,165.51895 68.059936,164.34626 69.136501,163.5196 C 70.21306,162.69297 71.741394,162.27965 73.721507,162.27963 C 74.70194,162.27965 75.624708,162.35174 76.489813,162.49591 C 77.354897,162.64011 78.152706,162.85638 78.883244,163.14473 L 78.883244,163.14473 z M 93.791725,157.29092 L 105.2254,157.29092 L 105.2254,159.74202 L 96.459102,159.74202 L 96.459102,165.0191 C 96.882032,164.87493 97.304967,164.7668 97.727909,164.69469 C 98.150837,164.62261 98.573772,164.58657 98.996716,164.58655 C 101.39975,164.58657 103.30296,165.245 104.70635,166.56186 C 106.10971,167.87873 106.8114,169.66179 106.81141,171.91103 C 106.8114,174.22757 106.09048,176.02744 104.64867,177.31067 C 103.20683,178.59389 101.17386,179.2355 98.54975,179.2355 C 97.646199,179.2355 96.725834,179.15861 95.788653,179.00481 C 94.851462,178.85102 93.883037,178.62033 92.883374,178.31274 L 92.883374,175.38583 C 93.748467,175.85683 94.642398,176.20767 95.56517,176.43836 C 96.487933,176.66906 97.463567,176.7844 98.492077,176.7844 C 100.15497,176.7844 101.47184,176.34705 102.44268,175.47234 C 103.4135,174.59764 103.89891,173.41053 103.89892,171.91103 C 103.89891,170.41154 103.4135,169.22444 102.44268,168.34972 C 101.47184,167.47502 100.15497,167.03767 98.492077,167.03766 C 97.713484,167.03767 96.937302,167.12418 96.163528,167.29719 C 95.389743,167.47022 94.599143,167.73936 93.791725,168.10461 L 93.791725,157.29092 z M 114.75587,176.39511 L 114.75587,184.95955 L 112.08849,184.95955 L 112.08849,162.66893 L 114.75587,162.66893 L 114.75587,165.12003 C 115.31337,164.15883 116.01746,163.44512 116.86815,162.97892 C 117.71881,162.51274 118.7353,162.27965 119.91761,162.27963 C 121.87848,162.27965 123.47169,163.05823 124.69726,164.61539 C 125.92279,166.17258 126.53557,168.21997 126.53559,170.75757 C 126.53557,173.29519 125.92279,175.34258 124.69726,176.89975 C 123.47169,178.45692 121.87848,179.2355 119.91761,179.2355 C 118.7353,179.2355 117.71881,179.00241 116.86815,178.53622 C 116.01746,178.07003 115.31337,177.35633 114.75587,176.39511 L 114.75587,176.39511 z M 123.7817,170.75757 C 123.78169,168.80631 123.38038,167.27557 122.57778,166.16535 C 121.77515,165.05516 120.67215,164.50006 119.26879,164.50004 C 117.8654,164.50006 116.7624,165.05516 115.95979,166.16535 C 115.15717,167.27557 114.75586,168.80631 114.75587,170.75757 C 114.75586,172.70885 115.15717,174.23958 115.95979,175.34978 C 116.7624,176.45999 117.8654,177.01509 119.26879,177.01509 C 120.67215,177.01509 121.77515,176.45999 122.57778,175.34978 C 123.38038,174.23958 123.78169,172.70885 123.7817,170.75757 L 123.7817,170.75757 z M 140.73757,157.29092 L 152.17125,157.29092 L 152.17125,159.74202 L 143.40495,159.74202 L 143.40495,165.0191 C 143.82788,164.87493 144.25081,164.7668 144.67376,164.69469 C 145.09668,164.62261 145.51962,164.58657 145.94256,164.58655 C 148.34559,164.58657 150.2488,165.245 151.65219,166.56186 C 153.05555,167.87873 153.75724,169.66179 153.75726,171.91103 C 153.75724,174.22757 153.03633,176.02744 151.59452,177.31067 C 150.15268,178.59389 148.11971,179.2355 145.4956,179.2355 C 144.59205,179.2355 143.67168,179.15861 142.7345,179.00481 C 141.79731,178.85102 140.82888,178.62033 139.82922,178.31274 L 139.82922,175.38583 C 140.69431,175.85683 141.58824,176.20767 142.51102,176.43836 C 143.43378,176.66906 144.40941,176.7844 145.43792,176.7844 C 147.10082,176.7844 148.41769,176.34705 149.38853,175.47234 C 150.35934,174.59764 150.84476,173.41053 150.84477,171.91103 C 150.84476,170.41154 150.35934,169.22444 149.38853,168.34972 C 148.41769,167.47502 147.10082,167.03767 145.43792,167.03766 C 144.65933,167.03767 143.88315,167.12418 143.10937,167.29719 C 142.33559,167.47022 141.54499,167.73936 140.73757,168.10461 L 140.73757,157.29092 z M 169.76152,165.12003 L 169.76152,156.38257 L 172.41448,156.38257 L 172.41448,178.81738 L 169.76152,178.81738 L 169.76152,176.39511 C 169.204,177.35633 168.49991,178.07003 167.64925,178.53622 C 166.79856,179.00241 165.77727,179.2355 164.58537,179.2355 C 162.63409,179.2355 161.04568,178.45692 159.82013,176.89975 C 158.59458,175.34258 157.9818,173.29519 157.98181,170.75757 C 157.9818,168.21997 158.59458,166.17258 159.82013,164.61539 C 161.04568,163.05823 162.63409,162.27965 164.58537,162.27963 C 165.77727,162.27965 166.79856,162.51274 167.64925,162.97892 C 168.49991,163.44512 169.204,164.15883 169.76152,165.12003 L 169.76152,165.12003 z M 160.72128,170.75757 C 160.72127,172.70885 161.12258,174.23958 161.9252,175.34978 C 162.72781,176.45999 163.83081,177.01509 165.23419,177.01509 C 166.63756,177.01509 167.74296,176.45999 168.55039,175.34978 C 169.3578,174.23958 169.76151,172.70885 169.76152,170.75757 C 169.76151,168.80631 169.3578,167.27557 168.55039,166.16535 C 167.74296,165.05516 166.63756,164.50006 165.23419,164.50004 C 163.83081,164.50006 162.72781,165.05516 161.9252,166.16535 C 161.12258,167.27557 160.72127,168.80631 160.72128,170.75757 L 160.72128,170.75757 z M 187.68342,157.29092 L 199.1171,157.29092 L 199.1171,159.74202 L 190.3508,159.74202 L 190.3508,165.0191 C 190.77372,164.87493 191.19666,164.7668 191.6196,164.69469 C 192.04253,164.62261 192.46547,164.58657 192.88841,164.58655 C 195.29144,164.58657 197.19465,165.245 198.59804,166.56186 C 200.0014,167.87873 200.70309,169.66179 200.7031,171.91103 C 200.70309,174.22757 199.98218,176.02744 198.54037,177.31067 C 197.09853,178.59389 195.06556,179.2355 192.44144,179.2355 C 191.53789,179.2355 190.61753,179.15861 189.68035,179.00481 C 188.74316,178.85102 187.77473,178.62033 186.77507,178.31274 L 186.77507,175.38583 C 187.64016,175.85683 188.53409,176.20767 189.45686,176.43836 C 190.37963,176.66906 191.35526,176.7844 192.38377,176.7844 C 194.04667,176.7844 195.36353,176.34705 196.33437,175.47234 C 197.30519,174.59764 197.7906,173.41053 197.79062,171.91103 C 197.7906,170.41154 197.30519,169.22444 196.33437,168.34972 C 195.36353,167.47502 194.04667,167.03767 192.38377,167.03766 C 191.60518,167.03767 190.82899,167.12418 190.05522,167.29719 C 189.28144,167.47022 188.49084,167.73936 187.68342,168.10461 L 187.68342,157.29092 z M 214.25627,156.38257 L 214.25627,158.58856 L 211.71865,158.58856 C 210.76704,158.58858 210.1062,158.78082 209.73614,159.16529 C 209.36607,159.5498 209.18103,160.24187 209.18104,161.24152 L 209.18104,162.66893 L 213.54977,162.66893 L 213.54977,164.73074 L 209.18104,164.73074 L 209.18104,178.81738 L 206.51366,178.81738 L 206.51366,164.73074 L 203.97605,164.73074 L 203.97605,162.66893 L 206.51366,162.66893 L 206.51366,161.5443 C 206.51366,159.74684 206.93179,158.43719 207.76805,157.61533 C 208.6043,156.79351 209.93078,156.38259 211.74749,156.38257 L 214.25627,156.38257 z M 226.23785,175.15514 L 229.2801,175.15514 L 229.2801,178.81738 L 226.23785,178.81738 L 226.23785,175.15514 z M 235.63854,175.15514 L 238.6808,175.15514 L 238.6808,178.81738 L 235.63854,178.81738 L 235.63854,175.15514 z M 245.03926,175.15514 L 248.08151,175.15514 L 248.08151,178.81738 L 245.03926,178.81738 L 245.03926,175.15514 z M 56.751217,203.80422 C 55.443953,203.80423 54.408243,204.25119 53.644083,205.14511 C 52.879909,206.03906 52.497826,207.26461 52.497831,208.82177 C 52.497826,210.36934 52.879909,211.59248 53.644083,212.49122 C 54.408243,213.38996 55.443953,213.83933 56.751217,213.83932 C 58.058462,213.83933 59.094172,213.38996 59.858352,212.49122 C 60.622506,211.59248 61.004589,210.36934 61.004603,208.82177 C 61.004589,207.26461 60.622506,206.03906 59.858352,205.14511 C 59.094172,204.25119 58.058462,203.80423 56.751217,203.80422 L 56.751217,203.80422 z M 62.532939,194.67746 L 62.532939,197.33042 C 61.802399,196.9844 61.064665,196.72006 60.319736,196.53741 C 59.57478,196.3548 58.837047,196.26349 58.106534,196.26347 C 56.18409,196.26349 54.715832,196.91231 53.701756,198.20993 C 52.687666,199.50759 52.108533,201.46847 51.964356,204.09258 C 52.531468,203.25634 53.242768,202.61472 54.098258,202.16774 C 54.953733,201.72079 55.895725,201.49731 56.924236,201.4973 C 59.086963,201.49731 60.795525,202.15334 62.049927,203.46539 C 63.304299,204.77746 63.931493,206.56292 63.93151,208.82177 C 63.931493,211.03258 63.277866,212.80602 61.970627,214.14211 C 60.663358,215.4782 58.923556,216.14625 56.751217,216.14625 C 54.261657,216.14625 52.358449,215.19224 51.041587,213.28422 C 49.724717,211.37621 49.066284,208.61031 49.066286,204.98651 C 49.066284,201.58382 49.873705,198.87079 51.488553,196.84741 C 53.103392,194.82407 55.270934,193.81239 57.991187,193.81236 C 58.721701,193.81239 59.459434,193.88448 60.20439,194.02864 C 60.94932,194.17284 61.725502,194.38912 62.532939,194.67746 L 62.532939,194.67746 z M 78.883244,200.05547 L 78.883244,202.56425 C 78.133482,202.17977 77.354897,201.89141 76.547486,201.69915 C 75.740053,201.50692 74.903795,201.4108 74.038709,201.41079 C 72.721834,201.4108 71.734185,201.61266 71.075757,202.01635 C 70.417318,202.42008 70.088102,203.02564 70.088106,203.83305 C 70.088102,204.44824 70.3236,204.93125 70.794601,205.28209 C 71.265592,205.63294 72.21239,205.96697 73.634998,206.28416 L 74.543348,206.48601 C 76.427323,206.88973 77.765817,207.45925 78.558833,208.19458 C 79.351824,208.92991 79.748325,209.95601 79.748339,211.27287 C 79.748325,212.77238 79.154774,213.95948 77.967684,214.83418 C 76.78057,215.70889 75.148905,216.14625 73.072686,216.14625 C 72.207584,216.14625 71.306443,216.06214 70.369262,215.89393 C 69.432072,215.72571 68.444422,215.47339 67.40631,215.13697 L 67.40631,212.3975 C 68.386749,212.90695 69.352771,213.28903 70.30438,213.54375 C 71.25598,213.79847 72.197972,213.92584 73.130359,213.92583 C 74.379932,213.92584 75.341149,213.71197 76.01401,213.28422 C 76.686851,212.85648 77.023277,212.25332 77.023288,211.47473 C 77.023277,210.75382 76.78057,210.20112 76.295166,209.81663 C 75.809742,209.43215 74.745195,209.06208 73.101522,208.70642 L 72.178754,208.49015 C 70.535067,208.14412 69.347965,207.61305 68.617444,206.89693 C 67.886917,206.18084 67.521654,205.19799 67.521656,203.9484 C 67.521654,202.42969 68.059936,201.25701 69.136501,200.43034 C 70.21306,199.60371 71.741394,199.19039 73.721507,199.19037 C 74.70194,199.19039 75.624708,199.26248 76.489813,199.40665 C 77.354897,199.55085 78.152706,199.76712 78.883244,200.05547 L 78.883244,200.05547 z M 100.35203,203.80422 C 99.044768,203.80423 98.009058,204.25119 97.244897,205.14511 C 96.480724,206.03906 96.09864,207.26461 96.098646,208.82177 C 96.09864,210.36934 96.480724,211.59248 97.244897,212.49122 C 98.009058,213.38996 99.044768,213.83933 100.35203,213.83932 C 101.65928,213.83933 102.69499,213.38996 103.45917,212.49122 C 104.22332,211.59248 104.6054,210.36934 104.60542,208.82177 C 104.6054,207.26461 104.22332,206.03906 103.45917,205.14511 C 102.69499,204.25119 101.65928,203.80423 100.35203,203.80422 L 100.35203,203.80422 z M 106.13375,194.67746 L 106.13375,197.33042 C 105.40321,196.9844 104.66548,196.72006 103.92055,196.53741 C 103.1756,196.3548 102.43786,196.26349 101.70735,196.26347 C 99.784905,196.26349 98.316647,196.91231 97.30257,198.20993 C 96.288481,199.50759 95.709348,201.46847 95.56517,204.09258 C 96.132283,203.25634 96.843583,202.61472 97.699073,202.16774 C 98.554548,201.72079 99.49654,201.49731 100.52505,201.4973 C 102.68778,201.49731 104.39634,202.15334 105.65074,203.46539 C 106.90511,204.77746 107.53231,206.56292 107.53232,208.82177 C 107.53231,211.03258 106.87868,212.80602 105.57144,214.14211 C 104.26417,215.4782 102.52437,216.14625 100.35203,216.14625 C 97.862472,216.14625 95.959264,215.19224 94.642402,213.28422 C 93.325531,211.37621 92.667098,208.61031 92.6671,204.98651 C 92.667098,201.58382 93.47452,198.87079 95.089368,196.84741 C 96.704207,194.82407 98.871749,193.81239 101.592,193.81236 C 102.32252,193.81239 103.06025,193.88448 103.8052,194.02864 C 104.55013,194.17284 105.32632,194.38912 106.13375,194.67746 L 106.13375,194.67746 z M 114.75587,213.30585 L 114.75587,221.87029 L 112.08849,221.87029 L 112.08849,199.57967 L 114.75587,199.57967 L 114.75587,202.03077 C 115.31337,201.06957 116.01746,200.35587 116.86815,199.88966 C 117.71881,199.42349 118.7353,199.19039 119.91761,199.19037 C 121.87848,199.19039 123.47169,199.96898 124.69726,201.52613 C 125.92279,203.08332 126.53557,205.13071 126.53559,207.66831 C 126.53557,210.20593 125.92279,212.25332 124.69726,213.81049 C 123.47169,215.36766 121.87848,216.14625 119.91761,216.14625 C 118.7353,216.14625 117.71881,215.91315 116.86815,215.44696 C 116.01746,214.98077 115.31337,214.26707 114.75587,213.30585 L 114.75587,213.30585 z M 123.7817,207.66831 C 123.78169,205.71705 123.38038,204.18631 122.57778,203.07609 C 121.77515,201.9659 120.67215,201.4108 119.26879,201.41079 C 117.8654,201.4108 116.7624,201.9659 115.95979,203.07609 C 115.15717,204.18631 114.75586,205.71705 114.75587,207.66831 C 114.75586,209.61959 115.15717,211.15032 115.95979,212.26053 C 116.7624,213.37073 117.8654,213.92584 119.26879,213.92583 C 120.67215,213.92584 121.77515,213.37073 122.57778,212.26053 C 123.38038,211.15032 123.78169,209.61959 123.7817,207.66831 L 123.7817,207.66831 z M 147.29788,203.80422 C 145.99061,203.80423 144.9549,204.25119 144.19074,205.14511 C 143.42657,206.03906 143.04449,207.26461 143.04449,208.82177 C 143.04449,210.36934 143.42657,211.59248 144.19074,212.49122 C 144.9549,213.38996 145.99061,213.83933 147.29788,213.83932 C 148.60512,213.83933 149.64083,213.38996 150.40501,212.49122 C 151.16917,211.59248 151.55125,210.36934 151.55126,208.82177 C 151.55125,207.26461 151.16917,206.03906 150.40501,205.14511 C 149.64083,204.25119 148.60512,203.80423 147.29788,203.80422 L 147.29788,203.80422 z M 153.0796,194.67746 L 153.0796,197.33042 C 152.34906,196.9844 151.61133,196.72006 150.8664,196.53741 C 150.12144,196.3548 149.38371,196.26349 148.65319,196.26347 C 146.73075,196.26349 145.26249,196.91231 144.24842,198.20993 C 143.23433,199.50759 142.65519,201.46847 142.51102,204.09258 C 143.07813,203.25634 143.78943,202.61472 144.64492,202.16774 C 145.50039,201.72079 146.44239,201.49731 147.4709,201.4973 C 149.63362,201.49731 151.34219,202.15334 152.59659,203.46539 C 153.85096,204.77746 154.47815,206.56292 154.47817,208.82177 C 154.47815,211.03258 153.82453,212.80602 152.51729,214.14211 C 151.21002,215.4782 149.47022,216.14625 147.29788,216.14625 C 144.80832,216.14625 142.90511,215.19224 141.58825,213.28422 C 140.27138,211.37621 139.61294,208.61031 139.61295,204.98651 C 139.61294,201.58382 140.42037,198.87079 142.03521,196.84741 C 143.65005,194.82407 145.8176,193.81239 148.53785,193.81236 C 149.26836,193.81239 150.0061,193.88448 150.75105,194.02864 C 151.49598,194.17284 152.27216,194.38912 153.0796,194.67746 L 153.0796,194.67746 z M 169.76152,202.03077 L 169.76152,193.29331 L 172.41448,193.29331 L 172.41448,215.72812 L 169.76152,215.72812 L 169.76152,213.30585 C 169.204,214.26707 168.49991,214.98077 167.64925,215.44696 C 166.79856,215.91315 165.77727,216.14625 164.58537,216.14625 C 162.63409,216.14625 161.04568,215.36766 159.82013,213.81049 C 158.59458,212.25332 157.9818,210.20593 157.98181,207.66831 C 157.9818,205.13071 158.59458,203.08332 159.82013,201.52613 C 161.04568,199.96898 162.63409,199.19039 164.58537,199.19037 C 165.77727,199.19039 166.79856,199.42349 167.64925,199.88966 C 168.49991,200.35587 169.204,201.06957 169.76152,202.03077 L 169.76152,202.03077 z M 160.72128,207.66831 C 160.72127,209.61959 161.12258,211.15032 161.9252,212.26053 C 162.72781,213.37073 163.83081,213.92584 165.23419,213.92583 C 166.63756,213.92584 167.74296,213.37073 168.55039,212.26053 C 169.3578,211.15032 169.76151,209.61959 169.76152,207.66831 C 169.76151,205.71705 169.3578,204.18631 168.55039,203.07609 C 167.74296,201.9659 166.63756,201.4108 165.23419,201.41079 C 163.83081,201.4108 162.72781,201.9659 161.9252,203.07609 C 161.12258,204.18631 160.72127,205.71705 160.72128,207.66831 L 160.72128,207.66831 z M 187.65458,212.06588 L 190.69683,212.06588 L 190.69683,215.72812 L 187.65458,215.72812 L 187.65458,212.06588 z M 197.05529,212.06588 L 200.09754,212.06588 L 200.09754,215.72812 L 197.05529,215.72812 L 197.05529,212.06588 z M 206.45599,212.06588 L 209.49824,212.06588 L 209.49824,215.72812 L 206.45599,215.72812 L 206.45599,212.06588 z M 225.25741,212.06588 L 228.29966,212.06588 L 228.29966,215.72812 L 225.25741,215.72812 L 225.25741,212.06588 z M 234.65811,212.06588 L 237.70036,212.06588 L 237.70036,215.72812 L 234.65811,215.72812 L 234.65811,212.06588 z M 244.05882,212.06588 L 247.10107,212.06588 L 247.10107,215.72812 L 244.05882,215.72812 L 244.05882,212.06588 z M 262.86022,212.06588 L 265.90248,212.06588 L 265.90248,215.72812 L 262.86022,215.72812 L 262.86022,212.06588 z M 272.26092,212.06588 L 275.30317,212.06588 L 275.30317,215.72812 L 272.26092,215.72812 L 272.26092,212.06588 z M 281.66163,212.06588 L 284.70388,212.06588 L 284.70388,215.72812 L 281.66163,215.72812 L 281.66163,212.06588 z " id="text1307"/>
    <path style="fill: none; fill-rule: evenodd; stroke: #FA8F00; stroke-width: 1px; stroke-linecap: butt; stroke-linejoin: miter; stroke-opacity: 1;" d="M 169.28571,37.142857 L 272.14286,37.142857 L 271.42857,36.428571" id="path3156" transform="matrix(0.515223, -0.35613, 0.677145, 0.979644, -83.4408, 96.297)"/>
    <path transform="matrix(0.876251, -0.647647, 0.629094, 0.851149, -142.122, 220.656)" id="path4127" d="M 169.28571,37.142857 L 272.14286,37.142857 L 271.42857,36.428571" style="fill: none; fill-rule: evenodd; stroke: #FA8F00; stroke-width: 1px; stroke-linecap: butt; stroke-linejoin: miter; stroke-opacity: 1;"/>
    <path transform="matrix(1.44926, -1.06553, 0.416983, 0.567149, -231.173, 370.995)" id="path4131" d="M 169.28571,37.142857 L 272.14286,37.142857 L 271.42857,36.428571" style="fill: none; fill-rule: evenodd; stroke: #FA8F00; stroke-width: 1px; stroke-linecap: butt; stroke-linejoin: miter; stroke-opacity: 1;"/>
    <path transform="matrix(0.509974, -0.363607, 0.691362, 0.969663, -82.8065, 134.318)" id="path4137" d="M 169.28571,37.142857 L 272.14286,37.142857 L 271.42857,36.428571" style="fill: none; fill-rule: evenodd; stroke: #FA8F00; stroke-width: 1px; stroke-linecap: butt; stroke-linejoin: miter; stroke-opacity: 1;"/>
    <path style="fill: none; fill-rule: evenodd; stroke: #FA8F00; stroke-width: 1px; stroke-linecap: butt; stroke-linejoin: miter; stroke-opacity: 1;" d="M 169.28571,37.142857 L 272.14286,37.142857 L 271.42857,36.428571" id="path4139" transform="matrix(0.951467, -0.719411, 0.698803, 0.924211, -157.049, 264.499)"/>
    <path style="fill: none; fill-rule: evenodd; stroke: #FA8F00; stroke-width: 1px; stroke-linecap: butt; stroke-linejoin: miter; stroke-opacity: 1;" d="M 169.28571,37.142857 L 272.14286,37.142857 L 271.42857,36.428571" id="path4145" transform="matrix(1.43547, -1.0554, 0.413016, 0.561755, -228.697, 403.485)"/>
    <path transform="matrix(1.42217, -1.04561, 0.409188, 0.556547, -182.308, 402.027)" id="path4147" d="M 169.28571,37.142857 L 272.14286,37.142857 L 271.42857,36.428571" style="fill: none; fill-rule: evenodd; stroke: #FA8F00; stroke-width: 1px; stroke-linecap: butt; stroke-linejoin: miter; stroke-opacity: 1;"/>
    <path transform="matrix(0.910295, -0.688281, 0.668564, 0.884218, -54.9816, 328.74)" id="path4151" d="M 169.28571,37.142857 L 272.14286,37.142857 L 271.42857,36.428571" style="fill: none; fill-rule: evenodd; stroke: #FA8F00; stroke-width: 1px; stroke-linecap: butt; stroke-linejoin: miter; stroke-opacity: 1;"/>
    <path sodipodi:type="star" style="opacity: 1; fill: #FA8F00; fill-opacity: 1; fill-rule: evenodd; stroke: #FA8F00; stroke-width: 0.934; stroke-linecap: butt; stroke-linejoin: miter; stroke-dasharray: none; stroke-opacity: 1;" id="path4153" sodipodi:sides="3" sodipodi:cx="185" sodipodi:cy="42.857143" sodipodi:r1="65" sodipodi:r2="32.5" sodipodi:arg1="0.52359878" sodipodi:arg2="1.5707963" inkscape:flatsided="true" inkscape:rounded="0" inkscape:randomized="0" d="M 241.29165,75.357144 L 128.70835,75.357143 L 185,-22.142857 L 241.29165,75.357144 z " transform="matrix(-0.0479743, -0.0798025, 0.142183, -0.0854755, 32.4389, 90.0953)"/>
    <path transform="matrix(-0.0479743, -0.0798025, 0.142183, -0.0854755, 32.4389, 126.095)" d="M 241.29165,75.357144 L 128.70835,75.357143 L 185,-22.142857 L 241.29165,75.357144 z " inkscape:randomized="0" inkscape:rounded="0" inkscape:flatsided="true" sodipodi:arg2="1.5707963" sodipodi:arg1="0.52359878" sodipodi:r2="32.5" sodipodi:r1="65" sodipodi:cy="42.857143" sodipodi:cx="185" sodipodi:sides="3" id="path5124" style="opacity: 1; fill: #FA8F00; fill-opacity: 1; fill-rule: evenodd; stroke: #FA8F00; stroke-width: 0.934; stroke-linecap: butt; stroke-linejoin: miter; stroke-dasharray: none; stroke-opacity: 1;" sodipodi:type="star"/>
    <path sodipodi:type="star" style="opacity: 1; fill: #FA8F00; fill-opacity: 1; fill-rule: evenodd; stroke: #FA8F00; stroke-width: 0.934; stroke-linecap: butt; stroke-linejoin: miter; stroke-dasharray: none; stroke-opacity: 1;" id="path5126" sodipodi:sides="3" sodipodi:cx="185" sodipodi:cy="42.857143" sodipodi:r1="65" sodipodi:r2="32.5" sodipodi:arg1="0.52359878" sodipodi:arg2="1.5707963" inkscape:flatsided="true" inkscape:rounded="0" inkscape:randomized="0" d="M 241.29165,75.357144 L 128.70835,75.357143 L 185,-22.142857 L 241.29165,75.357144 z " transform="matrix(-0.0479743, -0.0798025, 0.142183, -0.0854755, 32.4389, 160.095)"/>
    <path transform="matrix(-0.0479743, -0.0798025, 0.142183, -0.0854755, 32.4389, 194.095)" d="M 241.29165,75.357144 L 128.70835,75.357143 L 185,-22.142857 L 241.29165,75.357144 z " inkscape:randomized="0" inkscape:rounded="0" inkscape:flatsided="true" sodipodi:arg2="1.5707963" sodipodi:arg1="0.52359878" sodipodi:r2="32.5" sodipodi:r1="65" sodipodi:cy="42.857143" sodipodi:cx="185" sodipodi:sides="3" id="path5128" style="opacity: 1; fill: #FA8F00; fill-opacity: 1; fill-rule: evenodd; stroke: #FA8F00; stroke-width: 0.934; stroke-linecap: butt; stroke-linejoin: miter; stroke-dasharray: none; stroke-opacity: 1;" sodipodi:type="star"/>
    <path sodipodi:type="star" style="opacity: 1; fill: #FA8F00; fill-opacity: 1; fill-rule: evenodd; stroke: #FA8F00; stroke-width: 0.934; stroke-linecap: butt; stroke-linejoin: miter; stroke-dasharray: none; stroke-opacity: 1;" id="path5130" sodipodi:sides="3" sodipodi:cx="185" sodipodi:cy="42.857143" sodipodi:r1="65" sodipodi:r2="32.5" sodipodi:arg1="0.52359878" sodipodi:arg2="1.5707963" inkscape:flatsided="true" inkscape:rounded="0" inkscape:randomized="0" d="M 241.29165,75.357144 L 128.70835,75.357143 L 185,-22.142857 L 241.29165,75.357144 z " transform="matrix(-0.0479743, -0.0798025, 0.142183, -0.0854755, 32.4389, 230.095)"/>
    <path transform="matrix(-0.0479743, -0.0798025, 0.142183, -0.0854755, 32.4389, 264.095)" d="M 241.29165,75.357144 L 128.70835,75.357143 L 185,-22.142857 L 241.29165,75.357144 z " inkscape:randomized="0" inkscape:rounded="0" inkscape:flatsided="true" sodipodi:arg2="1.5707963" sodipodi:arg1="0.52359878" sodipodi:r2="32.5" sodipodi:r1="65" sodipodi:cy="42.857143" sodipodi:cx="185" sodipodi:sides="3" id="path5132" style="opacity: 1; fill: #FA8F00; fill-opacity: 1; fill-rule: evenodd; stroke: #FA8F00; stroke-width: 0.934; stroke-linecap: butt; stroke-linejoin: miter; stroke-dasharray: none; stroke-opacity: 1;" sodipodi:type="star"/>
    <path sodipodi:type="star" style="opacity: 1; fill: #FA8F00; fill-opacity: 1; fill-rule: evenodd; stroke: #FA8F00; stroke-width: 0.934; stroke-linecap: butt; stroke-linejoin: miter; stroke-dasharray: none; stroke-opacity: 1;" id="path5134" sodipodi:sides="3" sodipodi:cx="185" sodipodi:cy="42.857143" sodipodi:r1="65" sodipodi:r2="32.5" sodipodi:arg1="0.52359878" sodipodi:arg2="1.5707963" inkscape:flatsided="true" inkscape:rounded="0" inkscape:randomized="0" d="M 241.29165,75.357144 L 128.70835,75.357143 L 185,-22.142857 L 241.29165,75.357144 z " transform="matrix(-0.0479743, -0.0798025, 0.142183, -0.0854755, 74.4389, 264.095)"/>
    <path transform="matrix(-0.0479743, -0.0798025, 0.142183, -0.0854755, 124.439, 264.095)" d="M 241.29165,75.357144 L 128.70835,75.357143 L 185,-22.142857 L 241.29165,75.357144 z " inkscape:randomized="0" inkscape:rounded="0" inkscape:flatsided="true" sodipodi:arg2="1.5707963" sodipodi:arg1="0.52359878" sodipodi:r2="32.5" sodipodi:r1="65" sodipodi:cy="42.857143" sodipodi:cx="185" sodipodi:sides="3" id="path5136" style="opacity: 1; fill: #FA8F00; fill-opacity: 1; fill-rule: evenodd; stroke: #FA8F00; stroke-width: 0.934; stroke-linecap: butt; stroke-linejoin: miter; stroke-dasharray: none; stroke-opacity: 1;" sodipodi:type="star"/>
  </g>
</svg>
